<svg xmlns="http://www.w3.org/2000/svg" viewBox="0 0 512 512">
  <defs>
    <pattern id="dots" width="16" height="16" patternUnits="userSpaceOnUse">
      <circle cx="3" cy="3" r="2" fill="#0A0A0F" opacity="0.35"/>
    </pattern>
  </defs>
  <rect width="512" height="512" fill="#1B6FE0"/>
  <rect width="512" height="512" fill="url(#dots)"/>
  <g transform="translate(0,8)" fill="#F5F1E8" stroke="#0A0A0F" stroke-width="6" stroke-linejoin="round">
    <path d="M150 170 L210 130 Q256 100 302 130 L362 170 L340 240 L312 228 L312 410 L200 410 L200 228 L172 240 Z"/><path d="M236 150 q20 30 40 0 l-6 70 -28 0 Z" fill="#1B6FE0"/>
  </g>
  <g transform="translate(372,372)">
    <polygon points="50,0 61,32 95,32 68,53 78,86 50,66 22,86 32,53 5,32 39,32"
      fill="#FFD400" stroke="#0A0A0F" stroke-width="5"/>
    <text x="50" y="58" font-family="Arial Black, Arial" font-size="20" font-weight="900"
      text-anchor="middle" fill="#0A0A0F">POW</text>
  </g>
  <text x="40" y="470" font-family="Arial Black, Arial" font-size="30" font-weight="900"
    fill="#F5F1E8" stroke="#0A0A0F" stroke-width="1">HOODIE</text>
</svg>