<svg xmlns="http://www.w3.org/2000/svg" viewBox="0 0 512 512">
  <defs>
    <pattern id="dots" width="16" height="16" patternUnits="userSpaceOnUse">
      <circle cx="3" cy="3" r="2" fill="#E62429" opacity="0.35"/>
    </pattern>
  </defs>
  <rect width="512" height="512" fill="#0A0A0F"/>
  <rect width="512" height="512" fill="url(#dots)"/>
  <g transform="translate(0,8)" fill="#FFD400" stroke="#0A0A0F" stroke-width="6" stroke-linejoin="round">
    <path d="M160 150 L210 125 L256 150 L302 125 L352 150 L336 215 L312 206 L312 400 L256 400 L256 206 L256 400 L200 400 L200 206 L176 215 Z"/><line x1="256" y1="160" x2="256" y2="400" stroke="#0A0A0F" stroke-width="6"/>
  </g>
  <g transform="translate(372,372)">
    <polygon points="50,0 61,32 95,32 68,53 78,86 50,66 22,86 32,53 5,32 39,32"
      fill="#FFD400" stroke="#0A0A0F" stroke-width="5"/>
    <text x="50" y="58" font-family="Arial Black, Arial" font-size="20" font-weight="900"
      text-anchor="middle" fill="#0A0A0F">POW</text>
  </g>
  <text x="40" y="470" font-family="Arial Black, Arial" font-size="30" font-weight="900"
    fill="#F5F1E8" stroke="#0A0A0F" stroke-width="1">BOMBER</text>
</svg>